/* XPM */
static char * backgroundBasic1_xpm[] = {
"30 30 3 1",
"   c blue",
".  c purple",
"-  c white",
"    .   ----   .  ----     .  ",
"    ----              ----    ",
"       .       .       .      ",
"    .      .       .       .  ",
"       .       .       .      ",
"    .      .       .       .  ",
"       .       .       .      ",
"    .      .       .       .  ",
"       .       .       .      ",
"    .      .       .       .  ",
"       .       .       .      ",
"    .      .       .       .  ",
"-      .       .       .     -",
"--       .         .        --",
"  ----         .        ----  ",
"      ----          ----   .  ",
"       .       .       .      ",
"    .      .       .       .  ",
"       .       .       .      ",
"    .      .       .       .  ",
"       .       .       .      ",
"    .      .       .       .  ",
"       .       .       .      ",
"    .      .       .       .  ",
"       .       .       .      ",
"    .      .       .       .  ",
"       .       .       .      ",
"              --              ",
"            ------            ",
"    .   ----   .  ----     .  ",
"    ----              ----    "};
