/* XPM */
static char * backgroundBasic_xpm[] = {
"90 90 3 1",
"   c blue",
".  c purple",
"-  c white",
"    .   ----   .  ----     .      .   ----   .  ----     .      .   ----   .  ----     .  ",
"    ----              ----        ----              ----        ----              ----    ",
"       .       .       .       .     .       .       .      .      .       .       .      ",
"    .      .       .       .      .      .       .       .      .      .       .       .  ",
"       .       .       .       .     .       .       .      .      .       .       .      ",
"    .      .       .       .      .      .       .       .      .      .       .       .  ",
"       .       .       .       .     .       .       .      .      .       .       .      ",
"    .      .       .       .      .      .       .       .      .      .       .       .  ",
"       .       .       .       .     .       .       .      .      .       .       .      ",
"    .      .       .       .      .      .       .       .      .      .       .       .  ",
"       .       .       .       .     .       .       .      .      .       .       .      ",
"    .      .       .       .      .      .       .       .      .      .       .       .  ",
"-      .       .       .     --      .       .       .     --      .       .       .     -",
"--       .         .        ----       .         .        ----       .         .        --",
"  ----         .        ----    ----         .        ----    ----         .        ----  ",
"      ----          ----   .        ----          ----   .        ----          ----   .  ",
"       .       .       .       .     .       .       .      .      .       .       .      ",
"    .      .       .       .      .      .       .       .      .      .       .       .  ",
"       .       .       .       .     .       .       .      .      .       .       .      ",
"    .      .       .       .      .      .       .       .      .      .       .       .  ",
"       .       .       .       .     .       .       .      .      .       .       .      ",
"    .      .       .       .      .      .       .       .      .      .       .       .  ",
"       .       .       .       .     .       .       .      .      .       .       .      ",
"    .      .       .       .      .      .       .       .      .      .       .       .  ",
"       .       .       .       .     .       .       .      .      .       .       .      ",
"    .      .       .       .      .      .       .       .      .      .       .       .  ",
"       .       .       .       .     .       .       .      .      .       .       .      ",
"    .      .       .       .      .      .       .       .      .      .       .       .  ",
"       .       .       .       .     .       .       .      .      .       .       .      ",
"              --                            --                            --              ",
"            ------                        ------                        ------            ",
"    .   ----   .  ----     .      .   ----   .  ----     .      .   ----   .  ----     .  ",
"    ----              ----        ----              ----        ----              ----    ",
"       .       .       .       .     .       .       .      .      .       .       .      ",
"    .      .       .       .      .      .       .       .      .      .       .       .  ",
"       .       .       .       .     .       .       .      .      .       .       .      ",
"    .      .       .       .      .      .       .       .      .      .       .       .  ",
"       .       .       .       .     .       .       .      .      .       .       .      ",
"    .      .       .       .      .      .       .       .      .      .       .       .  ",
"       .       .       .       .     .       .       .      .      .       .       .      ",
"    .      .       .       .      .      .       .       .      .      .       .       .  ",
"       .       .       .       .     .       .       .      .      .       .       .      ",
"    .      .       .       .      .      .       .       .      .      .       .       .  ",
"-      .       .       .     --      .       .       .     --      .       .       .     -",
"--       .         .        ----       .         .        ----       .         .        --",
"  ----         .        ----    ----         .        ----    ----         .        ----  ",
"      ----          ----   .        ----          ----   .        ----          ----   .  ",
"    .      .       .       .      .      .       .       .      .      .       .       .  ",
"       .       .       .       .     .       .       .      .      .       .       .      ",
"    .      .       .       .      .      .       .       .      .      .       .       .  ",
"       .       .       .       .     .       .       .      .      .       .       .      ",
"    .      .       .       .      .      .       .       .      .      .       .       .  ",
"       .       .       .       .     .       .       .      .      .       .       .      ",
"    .      .       .       .      .      .       .       .      .      .       .       .  ",
"       .       .       .       .     .       .       .      .      .       .       .      ",
"    .      .       .       .      .      .       .       .      .      .       .       .  ",
"       .       .       .       .     .       .       .      .      .       .       .      ",
"    .      .       .       .      .      .       .       .      .      .       .       .  ",
"       .       .       .       .     .       .       .      .      .       .       .      ",
"    .      .       .       .      .      .       .       .      .      .       .       .  ",
"              --                            --                            --              ",
"            ------                        ------                        ------            ",
"    .   ----   .  ----     .      .   ----   .  ----     .      .   ----   .  ----     .  ",
"    ----              ----        ----              ----        ----              ----    ",
"    .      .       .       .      .      .       .       .      .      .       .       .  ",
"       .       .       .       .     .       .       .      .      .       .       .      ",
"    .      .       .       .      .      .       .       .      .      .       .       .  ",
"       .       .       .       .     .       .       .      .      .       .       .      ",
"    .      .       .       .      .      .       .       .      .      .       .       .  ",
"       .       .       .       .     .       .       .      .      .       .       .      ",
"    .      .       .       .      .      .       .       .      .      .       .       .  ",
"       .       .       .       .     .       .       .      .      .       .       .      ",
"    .      .       .       .      .      .       .       .      .      .       .       .  ",
"       .       .       .       .     .       .       .      .      .       .       .      ",
"-      .       .       .     --      .       .       .     --      .       .       .     -",
"--       .         .        ----       .         .        ----       .         .        --",
"  ----         .        ----    ----         .        ----    ----         .        ----  ",
"      ----          ----   .        ----          ----   .        ----          ----   .  ",
"    .      .       .       .      .      .       .       .      .      .       .       .  ",
"       .       .       .       .     .       .       .      .      .       .       .      ",
"    .      .       .       .      .      .       .       .      .      .       .       .  ",
"       .       .       .       .     .       .       .      .      .       .       .      ",
"    .      .       .       .      .      .       .       .      .      .       .       .  ",
"       .       .       .       .     .       .       .      .      .       .       .      ",
"    .      .       .       .      .      .       .       .      .      .       .       .  ",
"       .       .       .       .     .       .       .      .      .       .       .      ",
"    .      .       .       .      .      .       .       .      .      .       .       .  ",
"       .       .       .       .     .       .       .      .      .       .       .      ",
"-      .       .       .     --      .       .       .     --      .       .       .     -",
"    .      .       .       .      .      .       .       .      .      .       .       .  ",
"       .       .       .             .       .       .             .       .       .      "};
