/* XPM */
static char * boat000_xpm[] = {
"32 32 3 1",
".  c blue",
"X  c black",
"o  c red",




"................................",
"................................",
"...............XX...............",
"...............XX...............",
"...............XX...............",
"...............XX...............",
"...............XX...............",
"...............XX...............",
"...............XX...............",
"...............XX...............",
"...............XX...............",
"...............XX...............",
"...............XX...............",
"...............XX...............",
"...............XX...............",
"XXXXXXXXXXXXXXXXXXXXXXXXXXXXXXXX",
"XXXXXXXXXXXXXXXXXXXXXXXXXXXXXXXX",
"...............XX...............",
"...............XX...............",
"...............XX...............",
"...............XX...............",
"...............XX...............",
"...............XX...............",
"...............XX...............",
"...............XX...............",
"...............XX...............",
"...............XX...............",
"...............XX...............",
"...............XX...............",
"...............XX...............",
"................................",
"................................"};
