/* XPM */
static char * shipHit_xpm[] = {
"32 32 3 1",
".	c blue",
"X	c yellow",
"o      c red"



"................................",
"................................",
"................................",
"................................",
"................................",
"................................",
"................................",
"................................",
"................................",
"................................",
"...............XX...............",
"..............XXXX..............",
".............XXXXXX.............",
"............XXXXXXXX............",
"....XXXXXXXXXXXXXXXXXXXXXXXX....",
".....XXXXXXXXXXXXXXXXXXXXXX.....",
"......XXXXXXXXooooXXXXXXXX......",
".......XXXXXXooooooXXXXXX.......",
".......XXXXXXooooooXXXXXX.......",
"......XXXXXXXXooooXXXXXXXX......",
".....XXXXXXXXXXXXXXXXXXXXXX.....",
"....XXXXXXXXXXXXXXXXXXXXXXXX....",
"............XXXXXXXX............",
".............XXXXXX.............",
"..............XXXX..............",
"...............XX...............",
"................................",
"................................",
"................................",
"................................",
"................................",
"................................"};
